<?xml version="1.0" encoding="utf-8"?>
<!-- Generator: Adobe Illustrator 26.1.0, SVG Export Plug-In . SVG Version: 6.00 Build 0)  -->
<svg version="1.1" id="Layer_1" xmlns="http://www.w3.org/2000/svg" xmlns:xlink="http://www.w3.org/1999/xlink" x="0px" y="0px"
	 viewBox="10 21.5 39.5 14.5" style="enable-background:new 0 0 40 40;" xml:space="preserve">
<style type="text/css">
	.st0{fill:url(#SVGID_1_);}
</style>
<linearGradient id="SVGID_1_" gradientUnits="userSpaceOnUse" x1="10.4095" y1="28.7114" x2="49.0544" y2="28.7114">
	<stop  offset="2.770450e-07" style="stop-color:#55FFB0"/>
	<stop  offset="0.2024" style="stop-color:#4DF7B9"/>
	<stop  offset="0.5389" style="stop-color:#39E1D3"/>
	<stop  offset="0.9657" style="stop-color:#17BDFC"/>
	<stop  offset="0.9944" style="stop-color:#15BAFF"/>
</linearGradient>
<path class="st0" d="M45.7,22.91c-2.1-1.21-4.6-1.21-6.7,0l-9.27,5.35l-9.27-5.35c-2.1-1.21-4.6-1.21-6.7,0
	c-2.1,1.21-3.35,3.38-3.35,5.8s1.25,4.59,3.35,5.8c1.05,0.61,2.2,0.91,3.35,0.91c1.15,0,2.3-0.3,3.35-0.91l9.27-5.35L39,34.51
	c1.05,0.61,2.2,0.91,3.35,0.91c1.15,0,2.3-0.3,3.35-0.91c2.1-1.21,3.35-3.38,3.35-5.8S47.8,24.12,45.7,22.91z M19.81,33.38
	c-1.69,0.98-3.7,0.98-5.39,0c-1.69-0.97-2.7-2.72-2.7-4.67c0-1.95,1.01-3.7,2.7-4.67c0.84-0.49,1.77-0.73,2.7-0.73
	s1.85,0.24,2.7,0.73l8.09,4.67L19.81,33.38z M45.05,33.38c-1.69,0.97-3.7,0.97-5.39,0l-8.09-4.67l8.09-4.67
	c1.69-0.97,3.71-0.97,5.39,0c1.69,0.97,2.7,2.72,2.7,4.67C47.75,30.66,46.74,32.41,45.05,33.38z"/>
</svg>
